Coordinates
version=1
nRows=19
nColumns=24
inDegrees=yes

Units are S.I. units (second, meters, Newtons, ...)
Angles are in degrees.

endheader
time	pelvis_tilt	pelvis_list	pelvis_rotation	pelvis_tx	pelvis_ty	pelvis_tz	hip_flexion_r	hip_adduction_r	hip_rotation_r	knee_angle_r	ankle_angle_r	subtalar_angle_r	mtp_angle_r	hip_flexion_l	hip_adduction_l	hip_rotation_l	knee_angle_l	ankle_angle_l	subtalar_angle_l	mtp_angle_l	lumbar_extension	lumbar_bending	lumbar_rotation
      0.60400000	      1.35011423	      0.71626799	      8.79273797	     -0.80650003	      0.87967922	      0.26237337	     26.77743789	     -1.45068534	    -10.81509265	     -5.05974260	      7.78675892	      4.39942783	      5.02196513	    -27.56967261	     -0.49507266	      4.83261718	     -2.36440691	     11.72820848	      2.60117115	     17.76456756	     -9.29734944	     -0.95233216	    -11.85646144
      0.60816667	      1.28428027	      0.62454088	      8.91202110	     -0.80061160	      0.87864798	      0.26246045	     26.99822925	     -1.33560629	    -10.74506616	     -5.73845989	      7.58524275	      4.10054285	      4.94971896	    -27.59746013	     -0.69762320	      4.69418697	     -2.90949560	     11.68030377	      2.90967451	     17.84467649	     -9.20847834	     -0.77562025	    -11.87866369
      0.61233333	      1.23562183	      0.49888840	      9.03088065	     -0.79464462	      0.87766504	      0.26257206	     27.18156674	     -1.17809014	    -10.67106210	     -6.41851790	      7.33688172	      3.77442278	      4.90892885	    -27.65381735	     -0.93870512	      4.60736980	     -3.43655345	     11.58367721	      3.11453063	     17.94882065	     -9.11482678	     -0.54225921	    -11.87922042
      0.61650000	      1.19933210	      0.39418346	      9.12732861	     -0.78867389	      0.87673419	      0.26270870	     27.35223324	     -1.02973554	    -10.53911220	     -7.13194435	      6.99591362	      3.35902911	      4.87761416	    -27.70093279	     -1.14880981	      4.45916444	     -4.00872235	     11.50285916	      3.36390307	     18.15539926	     -9.04654575	     -0.34228763	    -11.87112197
      0.62066667	      1.13337051	      0.25542344	      9.22549077	     -0.78260273	      0.87580001	      0.26287497	     27.54611801	     -0.84948798	    -10.44286239	     -7.85992493	      6.61708268	      2.97710998	      4.87045093	    -27.72484762	     -1.39125839	      4.38077697	     -4.55667501	     11.31203740	      3.49718720	     18.31662898	     -8.91909492	     -0.09593425	    -11.85250215
      0.62483333	      1.09189246	      0.12286297	      9.30388253	     -0.77652110	      0.87490764	      0.26307985	     27.73257038	     -0.66704310	    -10.33683490	     -8.65238031	      6.19949525	      2.56602460	      5.13764773	    -27.71942398	     -1.62966685	      4.12550252	     -5.22175713	     11.19853747	      3.85347113	     21.48578695	     -8.82424433	      0.14055806	    -11.82432325
      0.62900000	      1.03704223	     -0.00895218	      9.36829809	     -0.77040767	      0.87406288	      0.26333636	     27.90401851	     -0.46590893	    -10.12257748	     -9.40136907	      5.67273616	      1.97734141	      5.14254878	    -27.73583217	     -1.84984328	      4.06945161	     -5.81222561	     10.91548520	      3.83092715	     21.56746422	     -8.72402340	      0.36560888	    -11.76353914
      0.63316667	      0.96240994	     -0.15347681	      9.42923566	     -0.76422696	      0.87322925	      0.26359013	     28.10932423	     -0.26335700	     -9.97076430	    -10.20135048	      5.12392412	      1.51153043	      5.15414453	    -27.71054595	     -2.07942427	      3.97602436	     -6.44026812	     10.60963085	      3.89933567	     21.65624627	     -8.56491866	      0.61621100	    -11.70931641
      0.63733333	      0.87992350	     -0.29652262	      9.46769593	     -0.75804165	      0.87240772	      0.26392699	     28.33581841	     -0.04615773	     -9.75157664	    -11.04073853	      4.55313747	      0.93423565	      5.17948129	    -27.64946061	     -2.30027203	      3.85621494	     -7.12528701	     10.34282490	      3.99671908	     21.79642187	     -8.43866797	      0.84545374	    -11.63122431
      0.64150000	      0.84717769	     -0.46020779	      9.49975918	     -0.75181270	      0.87169090	      0.26430421	     28.49793445	      0.21022014	     -9.50478570	    -11.86963344	      3.94923260	      0.24875785	      5.27993005	    -27.60446149	     -2.55369614	      3.64066826	     -7.88690092	     10.11795913	      4.19160653	     22.22136579	     -8.34702127	      1.10450666	    -11.50732745
      0.64566667	      0.74317520	     -0.59681853	      9.50956195	     -0.74556057	      0.87092237	      0.26469321	     28.77400957	      0.42229221	     -9.29265061	    -12.79825788	      3.38582793	     -0.27103930	      5.34105137	    -27.48850787	     -2.74716801	      3.55726845	     -8.64006825	      9.75556301	      4.19796267	     22.51141713	     -8.17098739	      1.32954100	    -11.42298241
      0.64983333	      0.65436247	     -0.74813259	      9.51567737	     -0.73927157	      0.87021061	      0.26512156	     29.03211387	      0.65846110	     -9.04926392	    -13.73735902	      2.81315614	     -0.84799300	      5.40942884	    -27.36535296	     -2.96304220	      3.42403617	     -9.43468769	      9.38859455	      4.24763283	     22.86031605	     -8.01302297	      1.56784976	    -11.30520341
      0.65400000	      0.56607634	     -0.89938502	      9.50443909	     -0.73294206	      0.86954492	      0.26557842	     29.30124080	      0.89908291	     -8.80766552	    -14.71580968	      2.27266190	     -1.39082676	      5.47449338	    -27.22403730	     -3.16934701	      3.28808823	    -10.26366331	      8.96673329	      4.28093223	     23.22965902	     -7.85355881	      1.80679254	    -11.18063222
      0.65816667	      0.50239703	     -1.07003965	      9.49261963	     -0.72656291	      0.86895598	      0.26604378	     29.54693723	      1.15659083	     -8.61283464	    -15.71339056	      1.76181743	     -1.83926281	      6.35642946	    -27.07319899	     -3.41092598	      3.05309711	    -11.14237219	      8.45548570	      4.38507826	     28.43162341	     -7.71254119	      2.07634717	    -11.12139327
      0.66233333	      0.41354163	     -1.21957259	      9.45426302	     -0.72015685	      0.86838301	      0.26654716	     29.83551148	      1.40189504	     -8.36281304	    -16.76776838	      1.34628892	     -2.28401380	      6.33906605	    -26.91789842	     -3.59727375	      2.97882271	    -11.98822286	      7.87529229	      4.27080610	     28.46081204	     -7.54263167	      2.31691384	    -10.98078259
      0.66650000	      0.32876662	     -1.36132692	      9.41697873	     -0.71377037	      0.86784129	      0.26707862	     30.13452237	      1.64121105	     -8.10702621	    -17.86534360	      0.96310635	     -2.78935221	      6.31048330	    -26.71199754	     -3.78173178	      2.87460511	    -12.94788912	      7.41564440	      4.22923917	     28.55210736	     -7.38814271	      2.53637679	    -10.80690187
      0.67066667	      0.26072386	     -1.52363424	      9.36624009	     -0.70729549	      0.86738403	      0.26762299	     30.40599662	      1.90722864	     -7.86670205	    -18.96185235	      0.68430092	     -3.15745748	      6.28600659	    -26.51899962	     -3.98524511	      2.74473110	    -13.89839542	      6.78841856	      4.18834438	     28.63323906	     -7.24197612	      2.79142795	    -10.69708433
      0.67483333	      0.18744468	     -1.66740295	      9.31667657	     -0.70084739	      0.86694739	      0.26817998	     30.69792537	      2.15347891	     -7.62716882	    -20.10269517	      0.43353869	     -3.58298998	      6.23440239	    -26.27564869	     -4.17162418	      2.61203463	    -14.94237266	      6.26650870	      4.17568285	     28.81052217	     -7.09121276	      3.01042961	    -10.51986718
      0.67900000	      0.13106133	     -1.82038813	      9.25743374	     -0.69434459	      0.86659385	      0.26875112	     30.96032771	      2.41574883	     -7.39556354	    -21.23726808	      0.28335887	     -3.91733863	      6.16616055	    -26.03530811	     -4.36600445	      2.48004247	    -15.99869101	      5.61886052	      4.13112626	     29.02932050	     -6.95645706	      3.24962862	    -10.37481843
